# xmcd
#
# Track frame offsets:
#	187
#	8580
#	16282
#	39747
#	84230
#	112517
#	132220
#	156797
#
# Disc length: 2332 seconds
#
# Revision: 1
# Processed by: cddbd v1.5.1PL0 Copyright (c) Steve Scherf et al.
# Submitted via: EasyCDDAExtractor 6.2.0.3
#
DISCID=4a091a08
DTITLE=B.B. King - Live In Cook County Jail
DYEAR=1900
DGENRE=blues
TTITLE0=Introduction
TTITLE1=Everyday I Have The Blues
TTITLE2=How Blues Can You Get
TTITLE3=Worry, Worry, Worry
TTITLE4=3 O'Clock Blues-Darlin' You Know I Love You
TTITLE5=Sweet Sixteen
TTITLE6=The Thrill Is Gone
TTITLE7=Please Accept My Love
EXTD=
EXTT0=
EXTT1=
EXTT2=
EXTT3=
EXTT4=
EXTT5=
EXTT6=
EXTT7=
PLAYORDER=
